<svg width="15" height="15" viewBox="0 0 15 15" fill="none" xmlns="http://www.w3.org/2000/svg">
<g id="delete 1" clip-path="url(#clip0_256_38088)">
<g id="Group">
<path id="Vector" d="M13.0227 4.75106H6.33177L9.32807 1.75476C9.49359 1.58925 9.49359 1.32089 9.32807 1.15535L8.56883 0.3961C8.18262 0.00989372 7.55645 0.00989372 7.17022 0.3961L6.38955 1.17679L5.98993 0.777164C5.54927 0.336484 4.83221 0.336512 4.39153 0.777164L2.83309 2.33561C2.39241 2.77629 2.39241 3.49335 2.83309 3.93403L3.23269 4.33366L2.45202 5.11432C2.06582 5.50053 2.06582 6.1267 2.45202 6.51293L3.21127 7.27218C3.37675 7.43769 3.64514 7.43772 3.81065 7.27218L4.88491 6.19793V12.7364C4.88491 13.7508 5.70722 14.5731 6.72157 14.5731H11.1861C12.2004 14.5731 13.0227 13.7508 13.0227 12.7364V4.75106ZM3.8321 3.73422L3.4325 3.33462C3.32234 3.22446 3.32234 3.04518 3.4325 2.93499L4.99094 1.37655C5.10114 1.26636 5.28041 1.26639 5.39054 1.37655L5.79014 1.77618L3.8321 3.73422ZM7.49195 12.1995C7.49195 12.4336 7.30219 12.6234 7.06811 12.6234C6.83402 12.6234 6.64427 12.4336 6.64427 12.1995V7.12461C6.64427 6.89052 6.83402 6.70077 7.06811 6.70077C7.30219 6.70077 7.49195 6.89052 7.49195 7.12461V12.1995ZM9.37766 12.1995C9.37766 12.4336 9.1879 12.6234 8.95382 12.6234C8.71973 12.6234 8.52998 12.4336 8.52998 12.1995V7.12461C8.52998 6.89052 8.71973 6.70077 8.95382 6.70077C9.1879 6.70077 9.37766 6.89052 9.37766 7.12461V12.1995ZM11.2634 12.1995C11.2634 12.4336 11.0736 12.6234 10.8395 12.6234C10.6054 12.6234 10.4157 12.4336 10.4157 12.1995V7.12461C10.4157 6.89052 10.6054 6.70077 10.8395 6.70077C11.0736 6.70077 11.2634 6.89052 11.2634 7.12461V12.1995Z" fill="#FF8080"/>
<path id="Vector_2" d="M9.4258 3.31446C9.16724 3.40459 8.98585 3.63545 8.9559 3.90333H13.0226V3.1989C13.0226 2.71521 12.5467 2.3748 12.0896 2.52978L9.43459 3.31163C9.43173 3.31245 9.42862 3.31358 9.4258 3.31446Z" fill="#FF8080"/>
</g>
</g>
<defs>
<clipPath id="clip0_256_38088">
<rect width="14.4666" height="14.4666" fill="white" transform="translate(0.359253 0.106445)"/>
</clipPath>
</defs>
</svg>
