<svg width="25" height="24" viewBox="0 0 25 24" fill="none" xmlns="http://www.w3.org/2000/svg">
<path d="M5.50977 19H6.93477L16.7098 9.225L15.2848 7.8L5.50977 17.575V19ZM3.50977 21V16.75L16.7098 3.575C16.9098 3.39167 17.1306 3.25 17.3723 3.15C17.6139 3.05 17.8681 3 18.1348 3C18.4014 3 18.6598 3.05 18.9098 3.15C19.1598 3.25 19.3764 3.4 19.5598 3.6L20.9348 5C21.1348 5.18333 21.2806 5.4 21.3723 5.65C21.4639 5.9 21.5098 6.15 21.5098 6.4C21.5098 6.66667 21.4639 6.92083 21.3723 7.1625C21.2806 7.40417 21.1348 7.625 20.9348 7.825L7.75977 21H3.50977ZM15.9848 8.525L15.2848 7.8L16.7098 9.225L15.9848 8.525Z" fill="#FC5704"/>
</svg>
