<?xml version="1.0" encoding="UTF-8"?>
<!DOCTYPE svg PUBLIC "-//W3C//DTD SVG 1.1//EN" "http://www.w3.org/Graphics/SVG/1.1/DTD/svg11.dtd">
<svg xmlns="http://www.w3.org/2000/svg" version="1.1" width="270px" height="270px" style="shape-rendering:geometricPrecision; text-rendering:geometricPrecision; image-rendering:optimizeQuality; fill-rule:evenodd; clip-rule:evenodd" xmlns:xlink="http://www.w3.org/1999/xlink">
<g><path style="opacity:1" fill="#fdfdfd" d="M -0.5,-0.5 C 89.5,-0.5 179.5,-0.5 269.5,-0.5C 269.5,37.1667 269.5,74.8333 269.5,112.5C 268.732,113.263 268.232,114.263 268,115.5C 267.818,112.774 267.318,110.107 266.5,107.5C 265.17,109.093 263.836,110.76 262.5,112.5C 263.831,114.823 263.498,116.823 261.5,118.5C 261.5,113.167 261.5,107.833 261.5,102.5C 259.265,102.205 257.265,102.539 255.5,103.5C 252.499,104.334 249.832,105.667 247.5,107.5C 243.583,109.984 240.083,112.984 237,116.5C 233.603,122.533 231.103,128.866 229.5,135.5C 228.833,136.833 228.167,138.167 227.5,139.5C 224.95,139.561 223.45,140.894 223,143.5C 222.517,142.552 222.351,141.552 222.5,140.5C 221.167,140.5 219.833,140.5 218.5,140.5C 218.799,142.604 218.466,144.604 217.5,146.5C 216.859,145.007 215.859,144.007 214.5,143.5C 214.167,143.5 213.833,143.5 213.5,143.5C 213.975,140.687 212.975,138.687 210.5,137.5C 210.586,136.504 210.252,135.671 209.5,135C 210.571,134.148 211.571,133.315 212.5,132.5C 218.365,129.101 222.031,124.101 223.5,117.5C 225.916,115.705 225.916,113.705 223.5,111.5C 222.181,107.206 220.015,103.206 217,99.5C 214.108,97.4228 210.941,96.0895 207.5,95.5C 207.167,95.5 206.833,95.5 206.5,95.5C 206.749,92.9979 207.083,90.4979 207.5,88C 207.607,85.7794 206.94,83.9461 205.5,82.5C 205.737,81.209 205.404,80.209 204.5,79.5C 203.392,77.3049 203.559,75.3049 205,73.5C 205.315,76.1468 206.482,76.8135 208.5,75.5C 209.95,74.1502 210.617,72.4835 210.5,70.5C 211.552,70.6495 212.552,70.4828 213.5,70C 212.577,67.9592 212.244,65.7925 212.5,63.5C 213.068,57.7429 212.068,52.4096 209.5,47.5C 207.82,46.2178 206.487,44.5511 205.5,42.5C 205.52,40.857 204.853,39.5237 203.5,38.5C 205.31,36.3766 206.643,34.0433 207.5,31.5C 206.5,31.5 205.5,31.5 204.5,31.5C 203.881,35.554 201.714,36.8873 198,35.5C 197.316,34.2161 197.483,33.0495 198.5,32C 196.415,31.4712 194.582,31.9712 193,33.5C 190.123,31.2156 188.623,32.2156 188.5,36.5C 188.5,41.5 188.5,46.5 188.5,51.5C 188.748,54.5804 189.414,57.5804 190.5,60.5C 190.547,62.0004 189.881,63.0004 188.5,63.5C 186.583,58.2552 184.917,52.9219 183.5,47.5C 183.167,49.1667 182.833,50.8333 182.5,52.5C 183.177,56.1716 183.844,59.8383 184.5,63.5C 182.833,63.5 181.167,63.5 179.5,63.5C 178.707,57.206 177.374,57.206 175.5,63.5C 174.833,63.5 174.167,63.5 173.5,63.5C 173.631,62.7611 173.464,62.0944 173,61.5C 170.537,60.9678 168.703,59.6345 167.5,57.5C 165.685,54.5926 163.019,53.2593 159.5,53.5C 159.5,56.1667 159.5,58.8333 159.5,61.5C 159.5,62.1667 159.5,62.8333 159.5,63.5C 157.09,69.4919 155.756,75.8253 155.5,82.5C 153.942,89.7191 151.609,96.7191 148.5,103.5C 148.777,98.1144 149.444,92.781 150.5,87.5C 151.5,83.5 152.5,79.5 153.5,75.5C 154.117,75.3893 154.617,75.056 155,74.5C 156.075,70.23 156.575,65.8967 156.5,61.5C 157.369,59.016 158.036,56.3493 158.5,53.5C 157.653,49.9311 155.653,48.5978 152.5,49.5C 146.651,47.5199 140.651,47.0199 134.5,48C 133.944,48.3826 133.611,48.8826 133.5,49.5C 131.25,50.1302 129.25,51.1302 127.5,52.5C 123.396,52.8839 119.729,54.3839 116.5,57C 114.866,57.4935 113.199,57.6602 111.5,57.5C 111.082,56.7784 110.416,56.2784 109.5,56C 104.167,55.3333 98.8333,55.3333 93.5,56C 90.3253,56.4932 87.6586,57.6598 85.5,59.5C 78.2326,61.645 72.566,65.9783 68.5,72.5C 57.2544,71.963 48.0877,75.963 41,84.5C 35.9027,93.3833 36.4027,101.717 42.5,109.5C 44.955,114.294 48.6216,117.627 53.5,119.5C 52.8333,119.5 52.1667,119.5 51.5,119.5C 50.5,119.5 49.5,119.5 48.5,119.5C 47.5318,121.607 47.1984,123.941 47.5,126.5C 47.5,129.167 47.5,131.833 47.5,134.5C 46.5,134.5 45.5,134.5 44.5,134.5C 41.8544,132.521 39.5211,130.188 37.5,127.5C 35.6802,126.117 33.6802,125.117 31.5,124.5C 31.5,124.167 31.5,123.833 31.5,123.5C 24.0091,118.774 16.0091,117.441 7.5,119.5C 6.74169,121.981 6.74169,124.648 7.5,127.5C 6.87446,125.374 5.54113,123.707 3.5,122.5C 2.26899,123.651 2.26899,124.817 3.5,126C 1.71402,127.196 0.380687,128.696 -0.5,130.5C -0.5,86.8333 -0.5,43.1667 -0.5,-0.5 Z"/></g>
<g><path style="opacity:1" fill="#517ac0" d="M 67.5,41.5 C 65.296,45.2456 63.6293,49.2456 62.5,53.5C 61.3349,52.5039 60.6682,51.1705 60.5,49.5C 61.1799,43.1823 62.8466,37.1823 65.5,31.5C 69.8624,29.3667 74.1958,27.0334 78.5,24.5C 81.7902,28.1551 82.2902,32.1551 80,36.5C 79.8142,34.0995 79.3142,31.7662 78.5,29.5C 75.9683,33.8744 74.135,38.541 73,43.5C 73.0172,39.5246 73.1839,35.5246 73.5,31.5C 72.5,31.5 71.5,31.5 70.5,31.5C 69.3356,34.7592 68.3356,38.0925 67.5,41.5 Z"/></g>
<g><path style="opacity:1" fill="#fcfbe4" d="M 205.5,42.5 C 201.5,40.1667 197.5,37.8333 193.5,35.5C 193.265,34.9033 192.765,34.5699 192,34.5C 190.697,34.9783 189.531,35.645 188.5,36.5C 188.623,32.2156 190.123,31.2156 193,33.5C 194.582,31.9712 196.415,31.4712 198.5,32C 197.483,33.0495 197.316,34.2161 198,35.5C 201.714,36.8873 203.881,35.554 204.5,31.5C 205.5,31.5 206.5,31.5 207.5,31.5C 206.643,34.0433 205.31,36.3766 203.5,38.5C 204.853,39.5237 205.52,40.857 205.5,42.5 Z"/></g>
<g><path style="opacity:1" fill="#6e88b3" d="M 65.5,31.5 C 62.8466,37.1823 61.1799,43.1823 60.5,49.5C 60.6682,51.1705 61.3349,52.5039 62.5,53.5C 62.5317,59.7787 61.3651,59.7787 59,53.5C 58.4361,48.8065 58.6027,44.1398 59.5,39.5C 61.0866,36.5723 63.0866,33.9056 65.5,31.5 Z"/></g>
<g><path style="opacity:1" fill="#f8e88b" d="M 193.5,35.5 C 191.983,35.5106 190.816,36.1772 190,37.5C 189.333,41.8333 189.333,46.1667 190,50.5C 191.269,51.9047 191.769,53.5714 191.5,55.5C 190.143,54.4097 189.143,53.0764 188.5,51.5C 188.5,46.5 188.5,41.5 188.5,36.5C 189.531,35.645 190.697,34.9783 192,34.5C 192.765,34.5699 193.265,34.9033 193.5,35.5 Z"/></g>
<g><path style="opacity:1" fill="#5d83b6" d="M 79.5,44.5 C 79.6633,42.1432 79.4966,39.8098 79,37.5C 77.7698,40.8304 76.6032,44.1637 75.5,47.5C 72.4893,47.8273 69.9893,49.1606 68,51.5C 67.5045,53.4727 67.3379,55.4727 67.5,57.5C 68.8333,57.5 70.1667,57.5 71.5,57.5C 70.0552,59.0627 68.3885,60.396 66.5,61.5C 65.3567,58.0242 65.1901,54.3575 66,50.5C 67.9304,46.8713 69.7637,43.2046 71.5,39.5C 71.1667,38.8333 70.8333,38.1667 70.5,37.5C 69.4793,38.9014 68.4793,40.2347 67.5,41.5C 68.3356,38.0925 69.3356,34.7592 70.5,31.5C 71.5,31.5 72.5,31.5 73.5,31.5C 73.1839,35.5246 73.0172,39.5246 73,43.5C 74.135,38.541 75.9683,33.8744 78.5,29.5C 79.3142,31.7662 79.8142,34.0995 80,36.5C 82.2902,32.1551 81.7902,28.1551 78.5,24.5C 74.1958,27.0334 69.8624,29.3667 65.5,31.5C 68.7216,27.8784 72.3882,24.7118 76.5,22C 77.9437,21.2195 79.277,21.3861 80.5,22.5C 84.7267,30.0984 84.3934,37.4317 79.5,44.5 Z"/></g>
<g><path style="opacity:1" fill="#cfdeee" d="M 156.5,61.5 C 156.5,58.1667 156.5,54.8333 156.5,51.5C 148.935,49.862 141.269,49.1953 133.5,49.5C 133.611,48.8826 133.944,48.3826 134.5,48C 140.651,47.0199 146.651,47.5199 152.5,49.5C 155.653,48.5978 157.653,49.9311 158.5,53.5C 158.036,56.3493 157.369,59.016 156.5,61.5 Z"/></g>
<g><path style="opacity:1" fill="#f7da24" d="M 193.5,35.5 C 197.5,37.8333 201.5,40.1667 205.5,42.5C 206.487,44.5511 207.82,46.2178 209.5,47.5C 210.968,52.7139 211.635,58.0472 211.5,63.5C 210.5,63.5 209.5,63.5 208.5,63.5C 208.737,62.209 208.404,61.209 207.5,60.5C 206.601,57.605 205.267,54.9384 203.5,52.5C 202.535,49.9152 201.201,49.4152 199.5,51C 200.124,54.0153 201.124,56.8486 202.5,59.5C 202.32,60.5539 201.987,61.5539 201.5,62.5C 205.016,63.8573 206.016,66.1906 204.5,69.5C 202.457,68.4206 201.124,66.754 200.5,64.5C 199.675,63.6143 198.675,63.281 197.5,63.5C 195.122,61.1215 193.122,58.4549 191.5,55.5C 191.769,53.5714 191.269,51.9047 190,50.5C 189.333,46.1667 189.333,41.8333 190,37.5C 190.816,36.1772 191.983,35.5106 193.5,35.5 Z"/></g>
<g><path style="opacity:1" fill="#c4d6eb" d="M 66.5,61.5 C 66.5299,62.4972 66.0299,63.1639 65,63.5C 63.6998,62.2927 62.1998,61.6261 60.5,61.5C 60.6495,60.448 60.4828,59.448 60,58.5C 59.6667,58.8333 59.3333,59.1667 59,59.5C 58.1155,55.8867 57.6155,52.22 57.5,48.5C 57.3425,45.1864 58.0092,42.1864 59.5,39.5C 58.6027,44.1398 58.4361,48.8065 59,53.5C 61.3651,59.7787 62.5317,59.7787 62.5,53.5C 63.6293,49.2456 65.296,45.2456 67.5,41.5C 68.4793,40.2347 69.4793,38.9014 70.5,37.5C 70.8333,38.1667 71.1667,38.8333 71.5,39.5C 69.7637,43.2046 67.9304,46.8713 66,50.5C 65.1901,54.3575 65.3567,58.0242 66.5,61.5 Z"/></g>
<g><path style="opacity:1" fill="#547ac0" d="M 79.5,44.5 C 77.6051,49.2861 74.9385,53.6194 71.5,57.5C 70.1667,57.5 68.8333,57.5 67.5,57.5C 67.3379,55.4727 67.5045,53.4727 68,51.5C 69.9893,49.1606 72.4893,47.8273 75.5,47.5C 76.6032,44.1637 77.7698,40.8304 79,37.5C 79.4966,39.8098 79.6633,42.1432 79.5,44.5 Z"/></g>
<g><path style="opacity:1" fill="#fcfbeb" d="M 188.5,51.5 C 189.143,53.0764 190.143,54.4097 191.5,55.5C 193.122,58.4549 195.122,61.1215 197.5,63.5C 197.351,64.552 197.517,65.552 198,66.5C 200.069,68.0854 202.236,69.4187 204.5,70.5C 205.504,71.6828 206.338,73.0161 207,74.5C 209.713,71.3006 211.213,67.634 211.5,63.5C 211.833,63.5 212.167,63.5 212.5,63.5C 212.244,65.7925 212.577,67.9592 213.5,70C 212.552,70.4828 211.552,70.6495 210.5,70.5C 210.617,72.4835 209.95,74.1502 208.5,75.5C 206.482,76.8135 205.315,76.1468 205,73.5C 203.559,75.3049 203.392,77.3049 204.5,79.5C 201.368,74.0279 197.034,70.0279 191.5,67.5C 186.36,66.5119 181.026,66.1786 175.5,66.5C 175.5,65.5 175.5,64.5 175.5,63.5C 177.374,57.206 178.707,57.206 179.5,63.5C 181.167,63.5 182.833,63.5 184.5,63.5C 183.844,59.8383 183.177,56.1716 182.5,52.5C 182.833,50.8333 183.167,49.1667 183.5,47.5C 184.917,52.9219 186.583,58.2552 188.5,63.5C 189.881,63.0004 190.547,62.0004 190.5,60.5C 189.414,57.5804 188.748,54.5804 188.5,51.5 Z"/></g>
<g><path style="opacity:1" fill="#859cc6" d="M 111.5,57.5 C 102.708,57.0386 94.0411,57.7052 85.5,59.5C 87.6586,57.6598 90.3253,56.4932 93.5,56C 98.8333,55.3333 104.167,55.3333 109.5,56C 110.416,56.2784 111.082,56.7784 111.5,57.5 Z"/></g>
<g><path style="opacity:1" fill="#faee99" d="M 209.5,47.5 C 212.068,52.4096 213.068,57.7429 212.5,63.5C 212.167,63.5 211.833,63.5 211.5,63.5C 211.635,58.0472 210.968,52.7139 209.5,47.5 Z"/></g>
<g><path style="opacity:1" fill="#f6e172" d="M 167.5,57.5 C 165.565,56.8505 163.565,56.5172 161.5,56.5C 161.923,58.7812 161.256,60.4479 159.5,61.5C 159.5,58.8333 159.5,56.1667 159.5,53.5C 163.019,53.2593 165.685,54.5926 167.5,57.5 Z"/></g>
<g><path style="opacity:1" fill="#fef1b5" d="M 203.5,52.5 C 205.267,54.9384 206.601,57.605 207.5,60.5C 207.784,62.4147 207.451,64.0813 206.5,65.5C 205.549,61.4232 203.882,57.5898 201.5,54C 201.836,52.9701 202.503,52.4701 203.5,52.5 Z"/></g>
<g><path style="opacity:1" fill="#537bbc" d="M 133.5,49.5 C 141.269,49.1953 148.935,49.862 156.5,51.5C 156.5,54.8333 156.5,58.1667 156.5,61.5C 155.509,66.0481 154.509,70.7148 153.5,75.5C 152.5,79.5 151.5,83.5 150.5,87.5C 145.327,99.5313 142.327,112.198 141.5,125.5C 136.603,122.049 133.436,117.382 132,111.5C 130.623,95.7333 125.456,81.4 116.5,68.5C 115.5,67.1667 114.5,67.1667 113.5,68.5C 115.785,72.7353 117.785,77.0686 119.5,81.5C 119.5,84.1667 119.5,86.8333 119.5,89.5C 115.689,89.8194 114.356,88.3194 115.5,85C 113.324,81.8219 110.657,81.1552 107.5,83C 108.563,84.1882 109.897,84.6882 111.5,84.5C 111.5,85.5 111.5,86.5 111.5,87.5C 110.167,87.5 108.833,87.5 107.5,87.5C 101.791,84.5741 95.7905,82.9074 89.5,82.5C 90.6936,81.2227 92.3603,80.5561 94.5,80.5C 98.2215,81.2959 101.888,81.2959 105.5,80.5C 98.3414,79.3422 91.1747,79.3422 84,80.5C 81.7002,80.5056 79.5336,80.0056 77.5,79C 78.1667,78.6667 78.8333,78.3333 79.5,78C 77.5273,77.5045 75.5273,77.3379 73.5,77.5C 73.8143,74.0534 74.6476,70.7201 76,67.5C 77.0113,66.6634 78.1779,66.33 79.5,66.5C 79.5,65.5 79.5,64.5 79.5,63.5C 84.0564,61.7253 88.7231,60.2253 93.5,59C 103.161,58.5002 112.828,58.3335 122.5,58.5C 122.351,57.448 122.517,56.448 123,55.5C 124.652,54.6006 126.152,53.6006 127.5,52.5C 129.25,51.1302 131.25,50.1302 133.5,49.5 Z"/></g>
<g><path style="opacity:1" fill="#b6c2f2" d="M 156.5,61.5 C 156.575,65.8967 156.075,70.23 155,74.5C 154.617,75.056 154.117,75.3893 153.5,75.5C 154.509,70.7148 155.509,66.0481 156.5,61.5 Z"/></g>
<g><path style="opacity:1" fill="#fbe98d" d="M 173.5,63.5 C 174.167,63.5 174.833,63.5 175.5,63.5C 175.5,64.5 175.5,65.5 175.5,66.5C 181.026,66.1786 186.36,66.5119 191.5,67.5C 185.794,67.8288 180.128,67.4954 174.5,66.5C 173.873,65.5832 173.539,64.5832 173.5,63.5 Z"/></g>
<g><path style="opacity:1" fill="#faf6bb" d="M 159.5,63.5 C 158.925,70.1139 157.592,76.4472 155.5,82.5C 155.756,75.8253 157.09,69.4919 159.5,63.5 Z"/></g>
<g><path style="opacity:1" fill="#f2df59" d="M 203.5,52.5 C 202.503,52.4701 201.836,52.9701 201.5,54C 203.882,57.5898 205.549,61.4232 206.5,65.5C 206.923,67.7812 206.256,69.4479 204.5,70.5C 202.236,69.4187 200.069,68.0854 198,66.5C 197.517,65.552 197.351,64.552 197.5,63.5C 198.675,63.281 199.675,63.6143 200.5,64.5C 201.124,66.754 202.457,68.4206 204.5,69.5C 206.016,66.1906 205.016,63.8573 201.5,62.5C 201.987,61.5539 202.32,60.5539 202.5,59.5C 201.124,56.8486 200.124,54.0153 199.5,51C 201.201,49.4152 202.535,49.9152 203.5,52.5 Z"/></g>
<g><path style="opacity:1" fill="#f8eb86" d="M 207.5,60.5 C 208.404,61.209 208.737,62.209 208.5,63.5C 209.5,63.5 210.5,63.5 211.5,63.5C 211.213,67.634 209.713,71.3006 207,74.5C 206.338,73.0161 205.504,71.6828 204.5,70.5C 206.256,69.4479 206.923,67.7812 206.5,65.5C 207.451,64.0813 207.784,62.4147 207.5,60.5 Z"/></g>
<g><path style="opacity:1" fill="#5a7fb8" d="M 127.5,52.5 C 126.152,53.6006 124.652,54.6006 123,55.5C 122.517,56.448 122.351,57.448 122.5,58.5C 112.828,58.3335 103.161,58.5002 93.5,59C 88.7231,60.2253 84.0564,61.7253 79.5,63.5C 79.5,64.5 79.5,65.5 79.5,66.5C 78.1779,66.33 77.0113,66.6634 76,67.5C 74.6476,70.7201 73.8143,74.0534 73.5,77.5C 75.5273,77.3379 77.5273,77.5045 79.5,78C 78.8333,78.3333 78.1667,78.6667 77.5,79C 79.5336,80.0056 81.7002,80.5056 84,80.5C 91.1747,79.3422 98.3414,79.3422 105.5,80.5C 101.888,81.2959 98.2215,81.2959 94.5,80.5C 92.3603,80.5561 90.6936,81.2227 89.5,82.5C 84.4516,82.1584 79.4516,81.4918 74.5,80.5C 74.5,81.5 74.5,82.5 74.5,83.5C 81.7005,84.4739 88.7005,85.8072 95.5,87.5C 91.2169,87.3771 87.0502,88.0438 83,89.5C 78.9751,88.5637 75.1418,87.2304 71.5,85.5C 71.6227,82.4121 70.6227,79.7454 68.5,77.5C 68.7093,76.914 69.0426,76.414 69.5,76C 66.1663,75.2192 62.833,74.8859 59.5,75C 56.8685,76.3267 54.2019,77.6601 51.5,79C 52.7932,79.49 54.1266,79.6567 55.5,79.5C 55.5,80.8333 55.5,82.1667 55.5,83.5C 52.1501,83.335 48.8168,83.5017 45.5,84C 44.6667,84.8333 43.8333,85.6667 43,86.5C 41.9373,90.8559 40.7706,95.1892 39.5,99.5C 40.4504,102.809 41.4504,106.142 42.5,109.5C 36.4027,101.717 35.9027,93.3833 41,84.5C 48.0877,75.963 57.2544,71.963 68.5,72.5C 72.566,65.9783 78.2326,61.645 85.5,59.5C 94.0411,57.7052 102.708,57.0386 111.5,57.5C 113.199,57.6602 114.866,57.4935 116.5,57C 119.729,54.3839 123.396,52.8839 127.5,52.5 Z"/></g>
<g><path style="opacity:1" fill="#fad81b" d="M 167.5,57.5 C 168.703,59.6345 170.537,60.9678 173,61.5C 173.464,62.0944 173.631,62.7611 173.5,63.5C 173.539,64.5832 173.873,65.5832 174.5,66.5C 180.128,67.4954 185.794,67.8288 191.5,67.5C 197.034,70.0279 201.368,74.0279 204.5,79.5C 205.404,80.209 205.737,81.209 205.5,82.5C 205.182,87.0323 205.515,91.3656 206.5,95.5C 206.833,95.5 207.167,95.5 207.5,95.5C 207.281,96.675 207.614,97.675 208.5,98.5C 214.585,99.6155 218.252,103.282 219.5,109.5C 217.007,109.131 216.34,109.797 217.5,111.5C 216.5,111.5 215.5,111.5 214.5,111.5C 208.237,111.786 202.237,112.786 196.5,114.5C 194.585,114.216 192.919,114.549 191.5,115.5C 187.429,115.234 183.429,115.567 179.5,116.5C 178.25,108.67 178.916,101.003 181.5,93.5C 181.113,89.7797 179.113,87.7797 175.5,87.5C 175.5,88.8333 175.5,90.1667 175.5,91.5C 175.5,92.1667 175.5,92.8333 175.5,93.5C 175.5,94.1667 175.5,94.8333 175.5,95.5C 173.792,103.607 172.792,111.94 172.5,120.5C 171.209,120.263 170.209,120.596 169.5,121.5C 169.167,121.5 168.833,121.5 168.5,121.5C 165.081,122.374 161.748,123.54 158.5,125C 157.748,125.671 157.414,126.504 157.5,127.5C 154.739,128.92 151.739,129.587 148.5,129.5C 147.196,121.47 147.196,113.47 148.5,105.5C 148.5,104.833 148.5,104.167 148.5,103.5C 151.609,96.7191 153.942,89.7191 155.5,82.5C 157.592,76.4472 158.925,70.1139 159.5,63.5C 159.5,62.8333 159.5,62.1667 159.5,61.5C 161.256,60.4479 161.923,58.7812 161.5,56.5C 163.565,56.5172 165.565,56.8505 167.5,57.5 Z"/></g>
<g><path style="opacity:1" fill="#527abc" d="M 95.5,87.5 C 105.711,89.9352 114.378,94.9352 121.5,102.5C 123.833,107.167 126.167,111.833 128.5,116.5C 129.219,118.764 129.552,121.097 129.5,123.5C 128.833,123.5 128.167,123.5 127.5,123.5C 122.294,121.603 116.794,120.603 111,120.5C 93.8668,122.683 76.7001,123.016 59.5,121.5C 57.5786,120.637 55.5786,119.971 53.5,119.5C 48.6216,117.627 44.955,114.294 42.5,109.5C 41.4504,106.142 40.4504,102.809 39.5,99.5C 40.7706,95.1892 41.9373,90.8559 43,86.5C 43.8333,85.6667 44.6667,84.8333 45.5,84C 48.8168,83.5017 52.1501,83.335 55.5,83.5C 55.5,82.1667 55.5,80.8333 55.5,79.5C 54.1266,79.6567 52.7932,79.49 51.5,79C 54.2019,77.6601 56.8685,76.3267 59.5,75C 62.833,74.8859 66.1663,75.2192 69.5,76C 69.0426,76.414 68.7093,76.914 68.5,77.5C 70.6227,79.7454 71.6227,82.4121 71.5,85.5C 75.1418,87.2304 78.9751,88.5637 83,89.5C 87.0502,88.0438 91.2169,87.3771 95.5,87.5 Z"/></g>
<g><path style="opacity:1" fill="#6381b8" d="M 119.5,81.5 C 124.287,86.209 125.62,91.8757 123.5,98.5C 122.148,97.4756 120.815,96.4756 119.5,95.5C 115.5,92.8333 111.5,90.1667 107.5,87.5C 108.833,87.5 110.167,87.5 111.5,87.5C 111.5,86.5 111.5,85.5 111.5,84.5C 109.897,84.6882 108.563,84.1882 107.5,83C 110.657,81.1552 113.324,81.8219 115.5,85C 114.356,88.3194 115.689,89.8194 119.5,89.5C 119.5,86.8333 119.5,84.1667 119.5,81.5 Z"/></g>
<g><path style="opacity:1" fill="#d5e5f1" d="M 89.5,82.5 C 95.7905,82.9074 101.791,84.5741 107.5,87.5C 111.5,90.1667 115.5,92.8333 119.5,95.5C 118.448,95.3505 117.448,95.5172 116.5,96C 119.142,97.4685 120.809,99.6352 121.5,102.5C 114.378,94.9352 105.711,89.9352 95.5,87.5C 88.7005,85.8072 81.7005,84.4739 74.5,83.5C 74.5,82.5 74.5,81.5 74.5,80.5C 79.4516,81.4918 84.4516,82.1584 89.5,82.5 Z"/></g>
<g><path style="opacity:1" fill="#fbf0c0" d="M 205.5,82.5 C 206.94,83.9461 207.607,85.7794 207.5,88C 207.083,90.4979 206.749,92.9979 206.5,95.5C 205.515,91.3656 205.182,87.0323 205.5,82.5 Z"/></g>
<g><path style="opacity:1" fill="#fef69d" d="M 175.5,91.5 C 176.5,91.5 177.5,91.5 178.5,91.5C 178.817,95.7016 178.483,99.7016 177.5,103.5C 178.069,99.6707 177.402,96.3373 175.5,93.5C 175.5,92.8333 175.5,92.1667 175.5,91.5 Z"/></g>
<g><path style="opacity:1" fill="#f3df4d" d="M 207.5,95.5 C 210.941,96.0895 214.108,97.4228 217,99.5C 220.015,103.206 222.181,107.206 223.5,111.5C 221.5,111.5 219.5,111.5 217.5,111.5C 216.34,109.797 217.007,109.131 219.5,109.5C 218.252,103.282 214.585,99.6155 208.5,98.5C 207.614,97.675 207.281,96.675 207.5,95.5 Z"/></g>
<g><path style="opacity:1" fill="#f2dc54" d="M 191.5,115.5 C 186.801,116.109 182.134,117.109 177.5,118.5C 177.5,113.5 177.5,108.5 177.5,103.5C 178.483,99.7016 178.817,95.7016 178.5,91.5C 177.5,91.5 176.5,91.5 175.5,91.5C 175.5,90.1667 175.5,88.8333 175.5,87.5C 179.113,87.7797 181.113,89.7797 181.5,93.5C 178.916,101.003 178.25,108.67 179.5,116.5C 183.429,115.567 187.429,115.234 191.5,115.5 Z"/></g>
<g><path style="opacity:1" fill="#fdfdfd" d="M 269.5,112.5 C 269.5,164.833 269.5,217.167 269.5,269.5C 179.5,269.5 89.5,269.5 -0.5,269.5C -0.5,223.167 -0.5,176.833 -0.5,130.5C 0.380687,128.696 1.71402,127.196 3.5,126C 2.26899,124.817 2.26899,123.651 3.5,122.5C 5.54113,123.707 6.87446,125.374 7.5,127.5C 9.05659,131.578 10.8899,135.578 13,139.5C 13.6708,140.252 14.5041,140.586 15.5,140.5C 18.188,145.188 21.8547,148.855 26.5,151.5C 28.2608,152.313 29.9275,153.313 31.5,154.5C 37.2833,156.053 43.2833,157.719 49.5,159.5C 51.7214,158.884 52.3881,157.717 51.5,156C 53.7695,155.242 55.9361,155.409 58,156.5C 58.7504,155.874 59.5838,155.374 60.5,155C 59.624,153.414 58.624,151.914 57.5,150.5C 60.3013,147.721 62.968,147.887 65.5,151C 71.8333,151.333 78.1667,151.667 84.5,152C 87.5469,155.57 91.2136,158.07 95.5,159.5C 95.9704,160.693 96.9704,161.36 98.5,161.5C 106.406,163.387 114.406,163.887 122.5,163C 124.626,162.102 126.626,160.935 128.5,159.5C 128.698,162.785 130.365,164.452 133.5,164.5C 133.5,165.5 133.5,166.5 133.5,167.5C 134.5,167.5 135.5,167.5 136.5,167.5C 138.974,170.31 141.974,172.31 145.5,173.5C 146.635,175.213 148.302,175.88 150.5,175.5C 151.274,169.825 151.941,163.992 152.5,158C 152.113,156.177 151.779,154.343 151.5,152.5C 153.711,145.674 155.044,138.841 155.5,132C 152.964,131.814 150.631,131.314 148.5,130.5C 151.187,130.664 153.854,130.497 156.5,130C 157.252,129.329 157.586,128.496 157.5,127.5C 161.197,125.986 164.864,124.319 168.5,122.5C 169.833,122.5 171.167,122.5 172.5,122.5C 172.5,122.833 172.5,123.167 172.5,123.5C 165.719,124.833 160.386,128.166 156.5,133.5C 155.844,134.622 155.511,135.955 155.5,137.5C 155.361,139.883 156.028,141.883 157.5,143.5C 157.5,144.167 157.5,144.833 157.5,145.5C 157.362,150.414 158.028,155.081 159.5,159.5C 159.833,159.5 160.167,159.5 160.5,159.5C 159.872,166.913 160.539,173.913 162.5,180.5C 174.955,183.658 187.289,182.825 199.5,178C 200.582,176.67 201.249,175.17 201.5,173.5C 203.5,171.833 205.5,170.167 207.5,168.5C 209.229,167.764 210.229,166.43 210.5,164.5C 213.028,162.11 214.528,159.11 215,155.5C 215.497,151.476 215.331,147.476 214.5,143.5C 215.859,144.007 216.859,145.007 217.5,146.5C 218.466,144.604 218.799,142.604 218.5,140.5C 219.833,140.5 221.167,140.5 222.5,140.5C 222.351,141.552 222.517,142.552 223,143.5C 223.45,140.894 224.95,139.561 227.5,139.5C 226.402,140.397 226.402,141.23 227.5,142C 231.027,142.808 234.36,142.641 237.5,141.5C 241.945,141.217 245.945,139.884 249.5,137.5C 252.566,135.638 255.9,134.305 259.5,133.5C 260.214,128.452 260.881,123.452 261.5,118.5C 263.498,116.823 263.831,114.823 262.5,112.5C 263.836,110.76 265.17,109.093 266.5,107.5C 267.318,110.107 267.818,112.774 268,115.5C 268.232,114.263 268.732,113.263 269.5,112.5 Z"/></g>
<g><path style="opacity:1" fill="#f2c2b5" d="M 214.5,111.5 C 215.5,111.5 216.5,111.5 217.5,111.5C 219.5,111.5 221.5,111.5 223.5,111.5C 225.916,113.705 225.916,115.705 223.5,117.5C 223.5,116.167 223.5,114.833 223.5,113.5C 220.615,113.194 217.948,113.527 215.5,114.5C 212.833,114.833 210.167,115.167 207.5,115.5C 208.5,114.833 209.5,114.167 210.5,113.5C 212.153,113.34 213.486,112.674 214.5,111.5 Z"/></g>
<g><path style="opacity:1" fill="#f2e572" d="M 214.5,111.5 C 213.486,112.674 212.153,113.34 210.5,113.5C 205.797,113.437 201.13,113.771 196.5,114.5C 202.237,112.786 208.237,111.786 214.5,111.5 Z"/></g>
<g><path style="opacity:1" fill="#c03e44" d="M 255.5,103.5 C 257.167,103.5 258.833,103.5 260.5,103.5C 260.821,108.695 260.487,113.695 259.5,118.5C 259.5,113.833 259.5,109.167 259.5,104.5C 257.901,104.232 256.568,104.566 255.5,105.5C 253.698,106.458 251.698,107.125 249.5,107.5C 248.833,107.5 248.167,107.5 247.5,107.5C 249.832,105.667 252.499,104.334 255.5,103.5 Z"/></g>
<g><path style="opacity:1" fill="#cd3c38" d="M 215.5,114.5 C 215.082,115.222 214.416,115.722 213.5,116C 206.224,117.371 198.891,118.204 191.5,118.5C 196.606,116.956 201.939,115.956 207.5,115.5C 210.167,115.167 212.833,114.833 215.5,114.5 Z"/></g>
<g><path style="opacity:1" fill="#f7ea99" d="M 148.5,105.5 C 147.196,113.47 147.196,121.47 148.5,129.5C 147.176,125.893 146.509,121.893 146.5,117.5C 146.509,113.107 147.176,109.107 148.5,105.5 Z"/></g>
<g><path style="opacity:1" fill="#fbf2d9" d="M 175.5,93.5 C 177.402,96.3373 178.069,99.6707 177.5,103.5C 177.5,108.5 177.5,113.5 177.5,118.5C 182.134,117.109 186.801,116.109 191.5,115.5C 192.919,114.549 194.585,114.216 196.5,114.5C 201.13,113.771 205.797,113.437 210.5,113.5C 209.5,114.167 208.5,114.833 207.5,115.5C 201.939,115.956 196.606,116.956 191.5,118.5C 185.084,119.513 178.751,120.846 172.5,122.5C 171.167,122.5 169.833,122.5 168.5,122.5C 168.5,122.167 168.5,121.833 168.5,121.5C 168.833,121.5 169.167,121.5 169.5,121.5C 171.167,121.5 172.833,121.5 174.5,121.5C 174.584,112.822 174.917,104.155 175.5,95.5C 175.5,94.8333 175.5,94.1667 175.5,93.5 Z"/></g>
<g><path style="opacity:1" fill="#faf4bb" d="M 175.5,95.5 C 174.917,104.155 174.584,112.822 174.5,121.5C 172.833,121.5 171.167,121.5 169.5,121.5C 170.209,120.596 171.209,120.263 172.5,120.5C 172.792,111.94 173.792,103.607 175.5,95.5 Z"/></g>
<g><path style="opacity:1" fill="#d84b47" d="M 191.5,118.5 C 185.712,121.754 179.378,123.42 172.5,123.5C 172.5,123.167 172.5,122.833 172.5,122.5C 178.751,120.846 185.084,119.513 191.5,118.5 Z"/></g>
<g><path style="opacity:1" fill="#d0232f" d="M 255.5,105.5 C 256.568,104.566 257.901,104.232 259.5,104.5C 259.5,109.167 259.5,113.833 259.5,118.5C 259.674,122.36 258.341,125.36 255.5,127.5C 256.049,125.099 256.882,122.765 258,120.5C 258.499,115.511 258.666,110.511 258.5,105.5C 257.5,105.5 256.5,105.5 255.5,105.5 Z"/></g>
<g><path style="opacity:1" fill="#90a5cb" d="M 127.5,123.5 C 105.501,123.295 83.5014,122.962 61.5,122.5C 60.5084,122.672 59.8417,122.338 59.5,121.5C 76.7001,123.016 93.8668,122.683 111,120.5C 116.794,120.603 122.294,121.603 127.5,123.5 Z"/></g>
<g><path style="opacity:1" fill="#96a7b2" d="M 128.5,116.5 C 130.873,118.579 132.206,121.246 132.5,124.5C 131.209,124.737 130.209,124.404 129.5,123.5C 129.552,121.097 129.219,118.764 128.5,116.5 Z"/></g>
<g><path style="opacity:1" fill="#e10b17" d="M 223.5,117.5 C 222.031,124.101 218.365,129.101 212.5,132.5C 210.833,132.5 209.167,132.5 207.5,132.5C 207.296,136.22 208.296,139.553 210.5,142.5C 208.816,143.854 208.316,145.521 209,147.5C 210.333,146.167 211.667,146.167 213,147.5C 213.528,153.363 212.694,159.03 210.5,164.5C 210.229,166.43 209.229,167.764 207.5,168.5C 203.168,169.338 199.835,171.672 197.5,175.5C 193.165,177.753 188.498,179.086 183.5,179.5C 177.158,179.666 170.825,179.5 164.5,179C 162.797,172.484 161.463,165.984 160.5,159.5C 160.167,159.5 159.833,159.5 159.5,159.5C 159.877,154.547 159.211,149.881 157.5,145.5C 157.5,144.833 157.5,144.167 157.5,143.5C 157.5,142.5 157.5,141.5 157.5,140.5C 157.338,138.473 157.505,136.473 158,134.5C 160.5,132.667 162.667,130.5 164.5,128C 167.684,127.246 170.351,125.746 172.5,123.5C 179.378,123.42 185.712,121.754 191.5,118.5C 198.891,118.204 206.224,117.371 213.5,116C 214.416,115.722 215.082,115.222 215.5,114.5C 217.948,113.527 220.615,113.194 223.5,113.5C 223.5,114.833 223.5,116.167 223.5,117.5 Z"/></g>
<g><path style="opacity:1" fill="#f9ee93" d="M 168.5,121.5 C 168.5,121.833 168.5,122.167 168.5,122.5C 164.864,124.319 161.197,125.986 157.5,127.5C 157.414,126.504 157.748,125.671 158.5,125C 161.748,123.54 165.081,122.374 168.5,121.5 Z"/></g>
<g><path style="opacity:1" fill="#ccefd5" d="M 51.5,119.5 C 52.1667,119.5 52.8333,119.5 53.5,119.5C 55.5786,119.971 57.5786,120.637 59.5,121.5C 59.8417,122.338 60.5084,122.672 61.5,122.5C 67.3537,124.671 73.3537,126.338 79.5,127.5C 70.3942,127.555 61.7275,125.722 53.5,122C 52.6195,121.292 51.9528,120.458 51.5,119.5 Z"/></g>
<g><path style="opacity:1" fill="#42a254" d="M 31.5,123.5 C 28.0172,124.084 25.0172,123.251 22.5,121C 18.8333,120.333 15.1667,120.333 11.5,121C 10.1667,122.333 10.1667,123.667 11.5,125C 14.3713,125.118 17.038,125.784 19.5,127C 17.5273,127.495 15.5273,127.662 13.5,127.5C 13.2467,131.415 13.9133,135.081 15.5,138.5C 10.9103,133.088 8.2436,126.755 7.5,119.5C 16.0091,117.441 24.0091,118.774 31.5,123.5 Z"/></g>
<g><path style="opacity:1" fill="#21a439" d="M 48.5,119.5 C 49.5,119.5 50.5,119.5 51.5,119.5C 51.9528,120.458 52.6195,121.292 53.5,122C 61.7275,125.722 70.3942,127.555 79.5,127.5C 84.8333,127.5 90.1667,127.5 95.5,127.5C 103.167,127.5 110.833,127.5 118.5,127.5C 118.33,128.822 118.663,129.989 119.5,131C 123.903,131.925 128.236,133.091 132.5,134.5C 133.429,135.689 133.762,137.022 133.5,138.5C 134.873,138.343 136.207,138.51 137.5,139C 139.405,140.421 141.405,141.588 143.5,142.5C 143.5,142.833 143.5,143.167 143.5,143.5C 144.11,147.829 145.61,151.829 148,155.5C 148.667,161.833 148.667,168.167 148,174.5C 147.329,173.748 146.496,173.414 145.5,173.5C 145.244,171.224 143.91,170.057 141.5,170C 136.592,165.442 132.925,160.108 130.5,154C 127.196,154.041 123.863,154.374 120.5,155C 118.963,156.11 118.297,157.61 118.5,159.5C 112.196,160.424 105.863,160.424 99.5,159.5C 99.6495,158.448 99.4828,157.448 99,156.5C 93.3663,155.535 89.533,152.368 87.5,147C 81.5074,147.132 75.5074,147.132 69.5,147C 65.558,145.718 62.558,143.385 60.5,140C 58.8659,139.506 57.1992,139.34 55.5,139.5C 54.7841,136.402 53.2841,133.736 51,131.5C 49.8462,127.546 49.0129,123.546 48.5,119.5 Z"/></g>
<g><path style="opacity:1" fill="#f2f8f7" d="M 150.5,87.5 C 149.444,92.781 148.777,98.1144 148.5,103.5C 148.5,104.167 148.5,104.833 148.5,105.5C 147.176,109.107 146.509,113.107 146.5,117.5C 146.509,121.893 147.176,125.893 148.5,129.5C 148.5,129.833 148.5,130.167 148.5,130.5C 150.631,131.314 152.964,131.814 155.5,132C 155.044,138.841 153.711,145.674 151.5,152.5C 151.779,154.343 152.113,156.177 152.5,158C 151.941,163.992 151.274,169.825 150.5,175.5C 151.968,163.822 149.634,153.155 143.5,143.5C 143.5,143.167 143.5,142.833 143.5,142.5C 142.5,141.167 141.5,139.833 140.5,138.5C 140.007,136.194 139.674,133.861 139.5,131.5C 135.988,132.264 132.988,131.097 130.5,128C 129.207,127.51 127.873,127.343 126.5,127.5C 125.5,127.5 124.5,127.5 123.5,127.5C 121.852,126.073 119.852,125.24 117.5,125C 111.5,124.333 105.5,124.333 99.5,125C 98.5842,125.278 97.9175,125.778 97.5,126.5C 96.5084,126.328 95.8417,126.662 95.5,127.5C 90.1667,127.5 84.8333,127.5 79.5,127.5C 73.3537,126.338 67.3537,124.671 61.5,122.5C 83.5014,122.962 105.501,123.295 127.5,123.5C 128.167,123.5 128.833,123.5 129.5,123.5C 130.209,124.404 131.209,124.737 132.5,124.5C 132.206,121.246 130.873,118.579 128.5,116.5C 126.167,111.833 123.833,107.167 121.5,102.5C 120.809,99.6352 119.142,97.4685 116.5,96C 117.448,95.5172 118.448,95.3505 119.5,95.5C 120.815,96.4756 122.148,97.4756 123.5,98.5C 125.62,91.8757 124.287,86.209 119.5,81.5C 117.785,77.0686 115.785,72.7353 113.5,68.5C 114.5,67.1667 115.5,67.1667 116.5,68.5C 125.456,81.4 130.623,95.7333 132,111.5C 133.436,117.382 136.603,122.049 141.5,125.5C 142.327,112.198 145.327,99.5313 150.5,87.5 Z"/></g>
<g><path style="opacity:1" fill="#d1f6cc" d="M 123.5,127.5 C 114.921,125.306 106.254,124.973 97.5,126.5C 97.9175,125.778 98.5842,125.278 99.5,125C 105.5,124.333 111.5,124.333 117.5,125C 119.852,125.24 121.852,126.073 123.5,127.5 Z"/></g>
<g><path style="opacity:1" fill="#e10f18" d="M 255.5,105.5 C 256.5,105.5 257.5,105.5 258.5,105.5C 258.666,110.511 258.499,115.511 258,120.5C 256.882,122.765 256.049,125.099 255.5,127.5C 255.762,128.978 255.429,130.311 254.5,131.5C 253.055,133.394 251.388,135.06 249.5,136.5C 247.833,136.5 246.167,136.5 244.5,136.5C 244.5,137.5 244.5,138.5 244.5,139.5C 242.219,139.923 240.552,139.256 239.5,137.5C 244.847,132.459 248.347,126.459 250,119.5C 247.302,123.025 244.469,126.358 241.5,129.5C 239.5,129.833 237.5,130.167 235.5,130.5C 235.5,132.167 235.5,133.833 235.5,135.5C 234.5,135.5 233.5,135.5 232.5,135.5C 232.775,128.84 235.109,123.007 239.5,118C 240.793,117.51 242.127,117.343 243.5,117.5C 243.5,115.5 243.5,113.5 243.5,111.5C 246.292,111.378 248.292,110.044 249.5,107.5C 251.698,107.125 253.698,106.458 255.5,105.5 Z"/></g>
<g><path style="opacity:1" fill="#fbe4e1" d="M 255.5,103.5 C 257.265,102.539 259.265,102.205 261.5,102.5C 261.5,107.833 261.5,113.167 261.5,118.5C 260.881,123.452 260.214,128.452 259.5,133.5C 255.9,134.305 252.566,135.638 249.5,137.5C 249.5,137.167 249.5,136.833 249.5,136.5C 251.388,135.06 253.055,133.394 254.5,131.5C 255.429,130.311 255.762,128.978 255.5,127.5C 258.341,125.36 259.674,122.36 259.5,118.5C 260.487,113.695 260.821,108.695 260.5,103.5C 258.833,103.5 257.167,103.5 255.5,103.5 Z"/></g>
<g><path style="opacity:1" fill="#f6f2b9" d="M 157.5,127.5 C 157.586,128.496 157.252,129.329 156.5,130C 153.854,130.497 151.187,130.664 148.5,130.5C 148.5,130.167 148.5,129.833 148.5,129.5C 151.739,129.587 154.739,128.92 157.5,127.5 Z"/></g>
<g><path style="opacity:1" fill="#d6f7de" d="M 7.5,119.5 C 8.2436,126.755 10.9103,133.088 15.5,138.5C 15.5,139.167 15.5,139.833 15.5,140.5C 14.5041,140.586 13.6708,140.252 13,139.5C 10.8899,135.578 9.05659,131.578 7.5,127.5C 6.74169,124.648 6.74169,121.981 7.5,119.5 Z"/></g>
<g><path style="opacity:1" fill="#26a33b" d="M 31.5,123.5 C 31.5,123.833 31.5,124.167 31.5,124.5C 31.5,125.5 31.5,126.5 31.5,127.5C 32.8333,127.5 34.1667,127.5 35.5,127.5C 35.2934,130.745 36.7934,132.745 40,133.5C 40.7975,135.259 40.6309,136.926 39.5,138.5C 37.3516,137.242 35.1849,137.242 33,138.5C 31.4029,137.115 29.5695,136.449 27.5,136.5C 26.8485,135.909 26.1818,135.243 25.5,134.5C 24.479,135.002 24.3123,135.668 25,136.5C 28.0298,140.695 31.5298,144.361 35.5,147.5C 35.4142,148.496 35.7476,149.329 36.5,150C 38.3325,150.748 39.9991,151.748 41.5,153C 36.4912,152.848 31.4912,152.348 26.5,151.5C 21.8547,148.855 18.188,145.188 15.5,140.5C 15.5,139.833 15.5,139.167 15.5,138.5C 13.9133,135.081 13.2467,131.415 13.5,127.5C 15.5273,127.662 17.5273,127.495 19.5,127C 17.038,125.784 14.3713,125.118 11.5,125C 10.1667,123.667 10.1667,122.333 11.5,121C 15.1667,120.333 18.8333,120.333 22.5,121C 25.0172,123.251 28.0172,124.084 31.5,123.5 Z"/></g>
<g><path style="opacity:1" fill="#3aa24a" d="M 123.5,127.5 C 124.5,127.5 125.5,127.5 126.5,127.5C 126.908,128.643 127.575,129.643 128.5,130.5C 132.873,132.681 136.873,135.347 140.5,138.5C 141.5,139.833 142.5,141.167 143.5,142.5C 141.405,141.588 139.405,140.421 137.5,139C 136.207,138.51 134.873,138.343 133.5,138.5C 133.762,137.022 133.429,135.689 132.5,134.5C 128.236,133.091 123.903,131.925 119.5,131C 118.663,129.989 118.33,128.822 118.5,127.5C 110.833,127.5 103.167,127.5 95.5,127.5C 95.8417,126.662 96.5084,126.328 97.5,126.5C 106.254,124.973 114.921,125.306 123.5,127.5 Z"/></g>
<g><path style="opacity:1" fill="#c83634" d="M 172.5,123.5 C 170.351,125.746 167.684,127.246 164.5,128C 162.667,130.5 160.5,132.667 158,134.5C 157.505,136.473 157.338,138.473 157.5,140.5C 156.532,138.393 156.198,136.059 156.5,133.5C 160.386,128.166 165.719,124.833 172.5,123.5 Z"/></g>
<g><path style="opacity:1" fill="#5eac65" d="M 48.5,119.5 C 49.0129,123.546 49.8462,127.546 51,131.5C 53.2841,133.736 54.7841,136.402 55.5,139.5C 51.5489,135.926 48.8822,131.593 47.5,126.5C 47.1984,123.941 47.5318,121.607 48.5,119.5 Z"/></g>
<g><path style="opacity:1" fill="#dbf4d8" d="M 126.5,127.5 C 127.873,127.343 129.207,127.51 130.5,128C 132.988,131.097 135.988,132.264 139.5,131.5C 139.674,133.861 140.007,136.194 140.5,138.5C 136.873,135.347 132.873,132.681 128.5,130.5C 127.575,129.643 126.908,128.643 126.5,127.5 Z"/></g>
<g><path style="opacity:1" fill="#f8c2be" d="M 239.5,137.5 C 237.938,137.733 236.605,138.4 235.5,139.5C 234.508,139.672 233.842,139.338 233.5,138.5C 236.48,135.849 239.147,132.849 241.5,129.5C 244.469,126.358 247.302,123.025 250,119.5C 248.347,126.459 244.847,132.459 239.5,137.5 Z"/></g>
<g><path style="opacity:1" fill="#d5272f" d="M 247.5,107.5 C 248.167,107.5 248.833,107.5 249.5,107.5C 248.292,110.044 246.292,111.378 243.5,111.5C 243.5,113.5 243.5,115.5 243.5,117.5C 242.127,117.343 240.793,117.51 239.5,118C 235.109,123.007 232.775,128.84 232.5,135.5C 233.5,135.5 234.5,135.5 235.5,135.5C 235.5,133.833 235.5,132.167 235.5,130.5C 237.5,130.167 239.5,129.833 241.5,129.5C 239.147,132.849 236.48,135.849 233.5,138.5C 232.292,139.234 230.959,139.567 229.5,139.5C 229.5,138.167 229.5,136.833 229.5,135.5C 231.103,128.866 233.603,122.533 237,116.5C 240.083,112.984 243.583,109.984 247.5,107.5 Z"/></g>
<g><path style="opacity:1" fill="#dd7577" d="M 156.5,133.5 C 156.198,136.059 156.532,138.393 157.5,140.5C 157.5,141.5 157.5,142.5 157.5,143.5C 156.028,141.883 155.361,139.883 155.5,137.5C 155.511,135.955 155.844,134.622 156.5,133.5 Z"/></g>
<g><path style="opacity:1" fill="#37a348" d="M 31.5,124.5 C 33.6802,125.117 35.6802,126.117 37.5,127.5C 39.5211,130.188 41.8544,132.521 44.5,134.5C 46.5,137.833 48.5,141.167 50.5,144.5C 53.1761,150.542 51.1761,152.042 44.5,149C 38.1828,145.633 32.5161,141.466 27.5,136.5C 29.5695,136.449 31.4029,137.115 33,138.5C 35.1849,137.242 37.3516,137.242 39.5,138.5C 40.6309,136.926 40.7975,135.259 40,133.5C 36.7934,132.745 35.2934,130.745 35.5,127.5C 34.1667,127.5 32.8333,127.5 31.5,127.5C 31.5,126.5 31.5,125.5 31.5,124.5 Z"/></g>
<g><path style="opacity:1" fill="#e27375" d="M 210.5,137.5 C 212.975,138.687 213.975,140.687 213.5,143.5C 212.508,141.544 211.508,139.544 210.5,137.5 Z"/></g>
<g><path style="opacity:1" fill="#d94151" d="M 249.5,136.5 C 249.5,136.833 249.5,137.167 249.5,137.5C 245.945,139.884 241.945,141.217 237.5,141.5C 235.007,141.869 234.34,141.203 235.5,139.5C 236.605,138.4 237.938,137.733 239.5,137.5C 240.552,139.256 242.219,139.923 244.5,139.5C 244.5,138.5 244.5,137.5 244.5,136.5C 246.167,136.5 247.833,136.5 249.5,136.5 Z"/></g>
<g><path style="opacity:1" fill="#e3969e" d="M 229.5,135.5 C 229.5,136.833 229.5,138.167 229.5,139.5C 230.959,139.567 232.292,139.234 233.5,138.5C 233.842,139.338 234.508,139.672 235.5,139.5C 234.34,141.203 235.007,141.869 237.5,141.5C 234.36,142.641 231.027,142.808 227.5,142C 226.402,141.23 226.402,140.397 227.5,139.5C 228.167,138.167 228.833,136.833 229.5,135.5 Z"/></g>
<g><path style="opacity:1" fill="#d8322f" d="M 212.5,132.5 C 211.571,133.315 210.571,134.148 209.5,135C 210.252,135.671 210.586,136.504 210.5,137.5C 211.508,139.544 212.508,141.544 213.5,143.5C 213.833,143.5 214.167,143.5 214.5,143.5C 215.331,147.476 215.497,151.476 215,155.5C 214.528,159.11 213.028,162.11 210.5,164.5C 212.694,159.03 213.528,153.363 213,147.5C 211.667,146.167 210.333,146.167 209,147.5C 208.316,145.521 208.816,143.854 210.5,142.5C 208.296,139.553 207.296,136.22 207.5,132.5C 209.167,132.5 210.833,132.5 212.5,132.5 Z"/></g>
<g><path style="opacity:1" fill="#bfeac4" d="M 27.5,136.5 C 32.5161,141.466 38.1828,145.633 44.5,149C 51.1761,152.042 53.1761,150.542 50.5,144.5C 52.1482,146.429 53.8149,148.429 55.5,150.5C 53.2546,152.623 50.5879,153.623 47.5,153.5C 43.2867,152.06 39.2867,150.06 35.5,147.5C 31.5298,144.361 28.0298,140.695 25,136.5C 24.3123,135.668 24.479,135.002 25.5,134.5C 26.1818,135.243 26.8485,135.909 27.5,136.5 Z"/></g>
<g><path style="opacity:1" fill="#65b167" d="M 143.5,143.5 C 149.634,153.155 151.968,163.822 150.5,175.5C 148.302,175.88 146.635,175.213 145.5,173.5C 146.496,173.414 147.329,173.748 148,174.5C 148.667,168.167 148.667,161.833 148,155.5C 145.61,151.829 144.11,147.829 143.5,143.5 Z"/></g>
<g><path style="opacity:1" fill="#3e9f54" d="M 35.5,147.5 C 39.2867,150.06 43.2867,152.06 47.5,153.5C 42.3595,154.488 37.0262,154.821 31.5,154.5C 29.9275,153.313 28.2608,152.313 26.5,151.5C 31.4912,152.348 36.4912,152.848 41.5,153C 39.9991,151.748 38.3325,150.748 36.5,150C 35.7476,149.329 35.4142,148.496 35.5,147.5 Z"/></g>
<g><path style="opacity:1" fill="#e9f8e7" d="M 47.5,126.5 C 48.8822,131.593 51.5489,135.926 55.5,139.5C 55.33,140.822 55.6634,141.989 56.5,143C 60.1444,144.822 63.8111,146.656 67.5,148.5C 73.5197,149.609 79.5197,149.776 85.5,149C 89.0867,152.416 92.42,155.916 95.5,159.5C 91.2136,158.07 87.5469,155.57 84.5,152C 78.1667,151.667 71.8333,151.333 65.5,151C 62.968,147.887 60.3013,147.721 57.5,150.5C 58.624,151.914 59.624,153.414 60.5,155C 59.5838,155.374 58.7504,155.874 58,156.5C 55.9361,155.409 53.7695,155.242 51.5,156C 52.3881,157.717 51.7214,158.884 49.5,159.5C 43.2833,157.719 37.2833,156.053 31.5,154.5C 37.0262,154.821 42.3595,154.488 47.5,153.5C 50.5879,153.623 53.2546,152.623 55.5,150.5C 53.8149,148.429 52.1482,146.429 50.5,144.5C 48.5,141.167 46.5,137.833 44.5,134.5C 45.5,134.5 46.5,134.5 47.5,134.5C 47.5,131.833 47.5,129.167 47.5,126.5 Z"/></g>
<g><path style="opacity:1" fill="#f3acb2" d="M 157.5,145.5 C 159.211,149.881 159.877,154.547 159.5,159.5C 158.028,155.081 157.362,150.414 157.5,145.5 Z"/></g>
<g><path style="opacity:1" fill="#4da757" d="M 55.5,139.5 C 57.1992,139.34 58.8659,139.506 60.5,140C 62.558,143.385 65.558,145.718 69.5,147C 75.5074,147.132 81.5074,147.132 87.5,147C 89.533,152.368 93.3663,155.535 99,156.5C 99.4828,157.448 99.6495,158.448 99.5,159.5C 98.1667,159.5 96.8333,159.5 95.5,159.5C 92.42,155.916 89.0867,152.416 85.5,149C 79.5197,149.776 73.5197,149.609 67.5,148.5C 63.8111,146.656 60.1444,144.822 56.5,143C 55.6634,141.989 55.33,140.822 55.5,139.5 Z"/></g>
<g><path style="opacity:1" fill="#3ea14e" d="M 145.5,173.5 C 141.974,172.31 138.974,170.31 136.5,167.5C 133.706,164.243 131.706,160.577 130.5,156.5C 128.801,156.34 127.134,156.506 125.5,157C 123.255,159.087 120.588,160.421 117.5,161C 112.833,161.667 108.167,161.667 103.5,161C 101.942,160.79 100.609,160.29 99.5,159.5C 105.863,160.424 112.196,160.424 118.5,159.5C 118.297,157.61 118.963,156.11 120.5,155C 123.863,154.374 127.196,154.041 130.5,154C 132.925,160.108 136.592,165.442 141.5,170C 143.91,170.057 145.244,171.224 145.5,173.5 Z"/></g>
<g><path style="opacity:1" fill="#def7db" d="M 136.5,167.5 C 135.5,167.5 134.5,167.5 133.5,167.5C 133.5,166.5 133.5,165.5 133.5,164.5C 130.365,164.452 128.698,162.785 128.5,159.5C 126.626,160.935 124.626,162.102 122.5,163C 114.406,163.887 106.406,163.387 98.5,161.5C 96.9704,161.36 95.9704,160.693 95.5,159.5C 96.8333,159.5 98.1667,159.5 99.5,159.5C 100.609,160.29 101.942,160.79 103.5,161C 108.167,161.667 112.833,161.667 117.5,161C 120.588,160.421 123.255,159.087 125.5,157C 127.134,156.506 128.801,156.34 130.5,156.5C 131.706,160.577 133.706,164.243 136.5,167.5 Z"/></g>
<g><path style="opacity:1" fill="#cd4140" d="M 207.5,168.5 C 205.5,170.167 203.5,171.833 201.5,173.5C 200.395,174.6 199.062,175.267 197.5,175.5C 199.835,171.672 203.168,169.338 207.5,168.5 Z"/></g>
<g><path style="opacity:1" fill="#595858" d="M 189.5,241.5 C 189.5,242.833 189.5,244.167 189.5,245.5C 181.833,245.5 174.167,245.5 166.5,245.5C 166.5,237.5 166.5,229.5 166.5,221.5C 166.334,216.156 166.501,210.823 167,205.5C 168.141,203.391 169.641,201.558 171.5,200C 179.46,196.688 186.794,192.355 193.5,187C 195.278,186.296 197.112,185.796 199,185.5C 200.909,186.156 202.742,186.656 204.5,187C 213.473,179.36 221.806,171.027 229.5,162C 231.833,161.333 234.167,161.333 236.5,162C 237.517,163.049 237.684,164.216 237,165.5C 227.791,182.05 216.291,196.884 202.5,210C 197.446,212.389 192.946,215.555 189,219.5C 187.953,222.039 187.453,224.705 187.5,227.5C 187.848,232.223 188.515,236.889 189.5,241.5 Z"/></g>
<g><path style="opacity:1" fill="#c1242d" d="M 160.5,159.5 C 161.463,165.984 162.797,172.484 164.5,179C 170.825,179.5 177.158,179.666 183.5,179.5C 176.687,180.491 169.687,180.825 162.5,180.5C 160.539,173.913 159.872,166.913 160.5,159.5 Z"/></g>
<g><path style="opacity:1" fill="#fcd2cc" d="M 201.5,173.5 C 201.249,175.17 200.582,176.67 199.5,178C 187.289,182.825 174.955,183.658 162.5,180.5C 169.687,180.825 176.687,180.491 183.5,179.5C 188.498,179.086 193.165,177.753 197.5,175.5C 199.062,175.267 200.395,174.6 201.5,173.5 Z"/></g>
<g><path style="opacity:1" fill="#585757" d="M 143.5,245.5 C 135.493,245.666 127.493,245.5 119.5,245C 120.444,242.281 120.777,239.448 120.5,236.5C 125.684,225.554 122.684,218.054 111.5,214C 101.658,205.824 92.8243,196.657 85,186.5C 82.4728,182.779 80.4728,178.779 79,174.5C 76.6171,170.895 74.1171,167.395 71.5,164C 71.6448,163.228 71.9781,162.561 72.5,162C 74.5,161.333 76.5,161.333 78.5,162C 86.8101,170.642 95.4768,178.976 104.5,187C 107.574,185.662 110.908,185.329 114.5,186C 120.46,191.949 127.46,196.283 135.5,199C 137.35,201.018 139.35,202.851 141.5,204.5C 142.512,218.152 143.178,231.818 143.5,245.5 Z"/></g>
<g><path style="opacity:1" fill="#a4a4a4" d="M 120.5,236.5 C 120.777,239.448 120.444,242.281 119.5,245C 127.493,245.5 135.493,245.666 143.5,245.5C 135.35,246.493 127.017,246.826 118.5,246.5C 118.753,242.96 119.419,239.627 120.5,236.5 Z"/></g>
<g><path style="opacity:1" fill="#ababab" d="M 166.5,221.5 C 166.5,229.5 166.5,237.5 166.5,245.5C 174.167,245.5 181.833,245.5 189.5,245.5C 189.5,244.167 189.5,242.833 189.5,241.5C 190.451,242.919 190.784,244.585 190.5,246.5C 182.167,246.5 173.833,246.5 165.5,246.5C 165.174,237.983 165.507,229.65 166.5,221.5 Z"/></g>
</svg>
