<svg width="61" height="56" viewBox="0 0 61 56" fill="none" xmlns="http://www.w3.org/2000/svg">
<path d="M2.0994 55.9999C2.78559 55.9999 3.34186 55.4437 3.34186 54.7575C3.34186 54.0713 2.78559 53.515 2.0994 53.515C1.4132 53.515 0.856934 54.0713 0.856934 54.7575C0.856934 55.4437 1.4132 55.9999 2.0994 55.9999Z" fill="white"/>
<path d="M2.0994 45.262C2.78559 45.262 3.34186 44.7058 3.34186 44.0196C3.34186 43.3334 2.78559 42.7771 2.0994 42.7771C1.4132 42.7771 0.856934 43.3334 0.856934 44.0196C0.856934 44.7058 1.4132 45.262 2.0994 45.262Z" fill="white"/>
<path d="M2.0994 34.5228C2.78559 34.5228 3.34186 33.9666 3.34186 33.2804C3.34186 32.5942 2.78559 32.0379 2.0994 32.0379C1.4132 32.0379 0.856934 32.5942 0.856934 33.2804C0.856934 33.9666 1.4132 34.5228 2.0994 34.5228Z" fill="white"/>
<path d="M2.0994 23.8731C2.78559 23.8731 3.34186 23.3168 3.34186 22.6306C3.34186 21.9445 2.78559 21.3882 2.0994 21.3882C1.4132 21.3882 0.856934 21.9445 0.856934 22.6306C0.856934 23.3168 1.4132 23.8731 2.0994 23.8731Z" fill="white"/>
<path d="M2.0994 13.1352C2.78559 13.1352 3.34186 12.5789 3.34186 11.8927C3.34186 11.2065 2.78559 10.6503 2.0994 10.6503C1.4132 10.6503 0.856934 11.2065 0.856934 11.8927C0.856934 12.5789 1.4132 13.1352 2.0994 13.1352Z" fill="white"/>
<path d="M2.10086 2.48572C2.78706 2.48572 3.34333 1.92945 3.34333 1.24326C3.34333 0.557064 2.78706 0.000793457 2.10086 0.000793457C1.41467 0.000793457 0.858398 0.557064 0.858398 1.24326C0.858398 1.92945 1.41467 2.48572 2.10086 2.48572Z" fill="white"/>
<path d="M59.6096 55.9992C60.2958 55.9992 60.8521 55.4429 60.8521 54.7567C60.8521 54.0706 60.2958 53.5143 59.6096 53.5143C58.9235 53.5143 58.3672 54.0706 58.3672 54.7567C58.3672 55.4429 58.9235 55.9992 59.6096 55.9992Z" fill="white"/>
<path d="M59.6096 45.2612C60.2958 45.2612 60.8521 44.705 60.8521 44.0188C60.8521 43.3326 60.2958 42.7763 59.6096 42.7763C58.9235 42.7763 58.3672 43.3326 58.3672 44.0188C58.3672 44.705 58.9235 45.2612 59.6096 45.2612Z" fill="white"/>
<path d="M59.6096 34.522C60.2958 34.522 60.8521 33.9658 60.8521 33.2796C60.8521 32.5934 60.2958 32.0371 59.6096 32.0371C58.9235 32.0371 58.3672 32.5934 58.3672 33.2796C58.3672 33.9658 58.9235 34.522 59.6096 34.522Z" fill="white"/>
<path d="M59.6096 23.8724C60.2958 23.8724 60.8521 23.3161 60.8521 22.6299C60.8521 21.9437 60.2958 21.3875 59.6096 21.3875C58.9235 21.3875 58.3672 21.9437 58.3672 22.6299C58.3672 23.3161 58.9235 23.8724 59.6096 23.8724Z" fill="white"/>
<path d="M59.6096 13.1344C60.2958 13.1344 60.8521 12.5781 60.8521 11.8919C60.8521 11.2057 60.2958 10.6495 59.6096 10.6495C58.9235 10.6495 58.3672 11.2057 58.3672 11.8919C58.3672 12.5781 58.9235 13.1344 59.6096 13.1344Z" fill="white"/>
<path d="M59.6096 2.48493C60.2958 2.48493 60.8521 1.92866 60.8521 1.24246C60.8521 0.55627 60.2958 0 59.6096 0C58.9235 0 58.3672 0.55627 58.3672 1.24246C58.3672 1.92866 58.9235 2.48493 59.6096 2.48493Z" fill="white"/>
<path d="M48.1614 55.9992C48.8476 55.9992 49.4039 55.4429 49.4039 54.7567C49.4039 54.0706 48.8476 53.5143 48.1614 53.5143C47.4752 53.5143 46.9189 54.0706 46.9189 54.7567C46.9189 55.4429 47.4752 55.9992 48.1614 55.9992Z" fill="white"/>
<path d="M48.1614 45.2612C48.8476 45.2612 49.4039 44.705 49.4039 44.0188C49.4039 43.3326 48.8476 42.7763 48.1614 42.7763C47.4752 42.7763 46.9189 43.3326 46.9189 44.0188C46.9189 44.705 47.4752 45.2612 48.1614 45.2612Z" fill="white"/>
<path d="M48.1614 34.522C48.8476 34.522 49.4039 33.9658 49.4039 33.2796C49.4039 32.5934 48.8476 32.0371 48.1614 32.0371C47.4752 32.0371 46.9189 32.5934 46.9189 33.2796C46.9189 33.9658 47.4752 34.522 48.1614 34.522Z" fill="white"/>
<path d="M48.1614 23.8724C48.8476 23.8724 49.4039 23.3161 49.4039 22.6299C49.4039 21.9437 48.8476 21.3875 48.1614 21.3875C47.4752 21.3875 46.9189 21.9437 46.9189 22.6299C46.9189 23.3161 47.4752 23.8724 48.1614 23.8724Z" fill="white"/>
<path d="M48.1614 13.1344C48.8476 13.1344 49.4039 12.5781 49.4039 11.8919C49.4039 11.2057 48.8476 10.6495 48.1614 10.6495C47.4752 10.6495 46.9189 11.2057 46.9189 11.8919C46.9189 12.5781 47.4752 13.1344 48.1614 13.1344Z" fill="white"/>
<path d="M48.1609 2.48493C48.8471 2.48493 49.4034 1.92866 49.4034 1.24246C49.4034 0.55627 48.8471 0 48.1609 0C47.4747 0 46.9185 0.55627 46.9185 1.24246C46.9185 1.92866 47.4747 2.48493 48.1609 2.48493Z" fill="white"/>
<path d="M36.6238 55.9992C37.31 55.9992 37.8663 55.4429 37.8663 54.7567C37.8663 54.0706 37.31 53.5143 36.6238 53.5143C35.9376 53.5143 35.3813 54.0706 35.3813 54.7567C35.3813 55.4429 35.9376 55.9992 36.6238 55.9992Z" fill="white"/>
<path d="M36.6238 45.2612C37.31 45.2612 37.8663 44.705 37.8663 44.0188C37.8663 43.3326 37.31 42.7763 36.6238 42.7763C35.9376 42.7763 35.3813 43.3326 35.3813 44.0188C35.3813 44.705 35.9376 45.2612 36.6238 45.2612Z" fill="white"/>
<path d="M36.6238 34.522C37.31 34.522 37.8663 33.9658 37.8663 33.2796C37.8663 32.5934 37.31 32.0371 36.6238 32.0371C35.9376 32.0371 35.3813 32.5934 35.3813 33.2796C35.3813 33.9658 35.9376 34.522 36.6238 34.522Z" fill="white"/>
<path d="M36.6238 23.8724C37.31 23.8724 37.8663 23.3161 37.8663 22.6299C37.8663 21.9437 37.31 21.3875 36.6238 21.3875C35.9376 21.3875 35.3813 21.9437 35.3813 22.6299C35.3813 23.3161 35.9376 23.8724 36.6238 23.8724Z" fill="white"/>
<path d="M36.6238 13.1344C37.31 13.1344 37.8663 12.5781 37.8663 11.8919C37.8663 11.2057 37.31 10.6495 36.6238 10.6495C35.9376 10.6495 35.3813 11.2057 35.3813 11.8919C35.3813 12.5781 35.9376 13.1344 36.6238 13.1344Z" fill="white"/>
<path d="M36.6233 2.48493C37.3095 2.48493 37.8658 1.92866 37.8658 1.24246C37.8658 0.55627 37.3095 0 36.6233 0C35.9371 0 35.3809 0.55627 35.3809 1.24246C35.3809 1.92866 35.9371 2.48493 36.6233 2.48493Z" fill="white"/>
<path d="M25.0867 55.9992C25.7729 55.9992 26.3292 55.4429 26.3292 54.7567C26.3292 54.0706 25.7729 53.5143 25.0867 53.5143C24.4005 53.5143 23.8442 54.0706 23.8442 54.7567C23.8442 55.4429 24.4005 55.9992 25.0867 55.9992Z" fill="white"/>
<path d="M25.0867 45.2612C25.7729 45.2612 26.3292 44.705 26.3292 44.0188C26.3292 43.3326 25.7729 42.7763 25.0867 42.7763C24.4005 42.7763 23.8442 43.3326 23.8442 44.0188C23.8442 44.705 24.4005 45.2612 25.0867 45.2612Z" fill="white"/>
<path d="M25.0867 34.522C25.7729 34.522 26.3292 33.9658 26.3292 33.2796C26.3292 32.5934 25.7729 32.0371 25.0867 32.0371C24.4005 32.0371 23.8442 32.5934 23.8442 33.2796C23.8442 33.9658 24.4005 34.522 25.0867 34.522Z" fill="white"/>
<path d="M25.0867 23.8724C25.7729 23.8724 26.3292 23.3161 26.3292 22.6299C26.3292 21.9437 25.7729 21.3875 25.0867 21.3875C24.4005 21.3875 23.8442 21.9437 23.8442 22.6299C23.8442 23.3161 24.4005 23.8724 25.0867 23.8724Z" fill="white"/>
<path d="M25.0867 13.1344C25.7729 13.1344 26.3292 12.5781 26.3292 11.8919C26.3292 11.2057 25.7729 10.6495 25.0867 10.6495C24.4005 10.6495 23.8442 11.2057 23.8442 11.8919C23.8442 12.5781 24.4005 13.1344 25.0867 13.1344Z" fill="white"/>
<path d="M25.0862 2.48493C25.7724 2.48493 26.3287 1.92866 26.3287 1.24246C26.3287 0.55627 25.7724 0 25.0862 0C24.4 0 23.8438 0.55627 23.8438 1.24246C23.8438 1.92866 24.4 2.48493 25.0862 2.48493Z" fill="white"/>
<path d="M13.5496 55.9992C14.2358 55.9992 14.7921 55.4429 14.7921 54.7567C14.7921 54.0706 14.2358 53.5143 13.5496 53.5143C12.8634 53.5143 12.3071 54.0706 12.3071 54.7567C12.3071 55.4429 12.8634 55.9992 13.5496 55.9992Z" fill="white"/>
<path d="M13.5496 45.2612C14.2358 45.2612 14.7921 44.705 14.7921 44.0188C14.7921 43.3326 14.2358 42.7763 13.5496 42.7763C12.8634 42.7763 12.3071 43.3326 12.3071 44.0188C12.3071 44.705 12.8634 45.2612 13.5496 45.2612Z" fill="white"/>
<path d="M13.5496 34.522C14.2358 34.522 14.7921 33.9658 14.7921 33.2796C14.7921 32.5934 14.2358 32.0371 13.5496 32.0371C12.8634 32.0371 12.3071 32.5934 12.3071 33.2796C12.3071 33.9658 12.8634 34.522 13.5496 34.522Z" fill="white"/>
<path d="M13.5496 23.8724C14.2358 23.8724 14.7921 23.3161 14.7921 22.6299C14.7921 21.9437 14.2358 21.3875 13.5496 21.3875C12.8634 21.3875 12.3071 21.9437 12.3071 22.6299C12.3071 23.3161 12.8634 23.8724 13.5496 23.8724Z" fill="white"/>
<path d="M13.5496 13.1344C14.2358 13.1344 14.7921 12.5781 14.7921 11.8919C14.7921 11.2057 14.2358 10.6495 13.5496 10.6495C12.8634 10.6495 12.3071 11.2057 12.3071 11.8919C12.3071 12.5781 12.8634 13.1344 13.5496 13.1344Z" fill="white"/>
<path d="M13.5491 2.48493C14.2353 2.48493 14.7916 1.92866 14.7916 1.24246C14.7916 0.55627 14.2353 0 13.5491 0C12.8629 0 12.3066 0.55627 12.3066 1.24246C12.3066 1.92866 12.8629 2.48493 13.5491 2.48493Z" fill="white"/>
</svg>
