<svg width="23" height="23" viewBox="0 0 23 23" fill="none" xmlns="http://www.w3.org/2000/svg">
<g clip-path="url(#clip0_438_91)">
<path d="M6.44694 17.1154C5.4372 17.1154 4.62023 17.9416 4.62023 18.9513C4.62023 19.961 5.4372 20.7872 6.44694 20.7872C7.45669 20.7872 8.28284 19.961 8.28284 18.9513C8.28284 17.9416 7.45669 17.1154 6.44694 17.1154ZM0.939251 2.42822V4.26412H2.77515L6.07976 11.2314L4.84053 13.4803C4.69366 13.7374 4.61105 14.0403 4.61105 14.3616C4.61105 15.3713 5.4372 16.1975 6.44694 16.1975H17.4623V14.3616H6.83248C6.70397 14.3616 6.60299 14.2606 6.60299 14.1321L6.63053 14.0219L7.45669 12.5257H14.2954C14.9839 12.5257 15.5897 12.1493 15.9018 11.5802L19.1881 5.62268C19.2615 5.49417 19.2982 5.33812 19.2982 5.18207C19.2982 4.6772 18.8851 4.26412 18.3803 4.26412H4.80382L3.94094 2.42822H0.939251ZM15.6264 17.1154C14.6167 17.1154 13.7997 17.9416 13.7997 18.9513C13.7997 19.961 14.6167 20.7872 15.6264 20.7872C16.6362 20.7872 17.4623 19.961 17.4623 18.9513C17.4623 17.9416 16.6362 17.1154 15.6264 17.1154Z" fill="white"/>
</g>
<defs>
<clipPath id="clip0_438_91">
<rect width="22.0308" height="22.0308" fill="white" transform="translate(0.0213032 0.592529)"/>
</clipPath>
</defs>
</svg>
