<svg width="19" height="19" viewBox="0 0 19 19" fill="none" xmlns="http://www.w3.org/2000/svg">
<g clip-path="url(#clip0_246_1548)">
<path d="M11.2203 6.73902L9.27589 8.68342L7.33149 6.73902L6.27295 7.79755L8.21735 9.74195L6.27295 11.6863L7.33149 12.7449L9.27589 10.8005L11.2203 12.7449L12.2788 11.6863L10.3344 9.74195L12.2788 7.79755L11.2203 6.73902ZM9.27589 2.23462C5.12433 2.23462 1.76855 5.5904 1.76855 9.74195C1.76855 13.8935 5.12433 17.2493 9.27589 17.2493C13.4274 17.2493 16.7832 13.8935 16.7832 9.74195C16.7832 5.5904 13.4274 2.23462 9.27589 2.23462ZM9.27589 15.7478C5.96515 15.7478 3.27002 13.0527 3.27002 9.74195C3.27002 6.43122 5.96515 3.73609 9.27589 3.73609C12.5866 3.73609 15.2818 6.43122 15.2818 9.74195C15.2818 13.0527 12.5866 15.7478 9.27589 15.7478Z" fill="#527BBD"/>
</g>
<defs>
<clipPath id="clip0_246_1548">
<rect width="18.0176" height="18.0176" fill="white" transform="translate(0.266602 0.733154)"/>
</clipPath>
</defs>
</svg>
