<svg width="46" height="39" viewBox="0 0 46 39" fill="none" xmlns="http://www.w3.org/2000/svg">
<g clip-path="url(#clip0_7_1601)">
<path d="M28.2878 34.6335L28.2915 34.6377L28.2954 34.6418C30.2148 36.6584 32.5673 37.6732 35.3296 37.6732C38.0839 37.6732 40.4339 36.7214 42.3552 34.8215C44.2767 32.9214 45.2408 30.5956 45.2408 27.8679C45.2408 25.1635 44.4066 22.9989 42.7012 21.4271C41.1121 19.7412 38.9253 18.9176 36.1942 18.9176C35.6998 18.9176 35.2064 18.9788 34.7147 19.1003L34.6999 19.104L34.6855 19.1087L33.6623 19.446C33.3182 19.5315 33.0234 19.6203 32.785 19.7144C32.7193 19.6418 32.6534 19.5308 32.5962 19.3611L32.5871 19.3338L32.5741 19.3083C32.3833 18.9311 32.2713 18.375 32.2713 17.6079C32.2713 15.5087 32.773 13.7697 33.7537 12.3678C34.8902 10.7948 36.0797 9.45122 37.3212 8.3344C38.7891 7.10696 40.4864 6.04359 42.4155 5.14589L42.8282 4.95386L42.585 4.5691L40.8557 1.83311L40.6847 1.5625L40.3831 1.66987C37.4485 2.71455 34.9189 4.28411 32.8 6.37933C30.9129 8.24547 29.2172 10.7961 27.7055 14.0152C26.1721 17.1658 25.4183 21.2209 25.4183 26.1579C25.4183 29.652 26.3623 32.4915 28.2878 34.6335ZM4.07792 34.6335L4.08174 34.6377L4.08567 34.6418C6.005 36.6584 8.35752 37.6732 11.1198 37.6732C13.8741 37.6732 16.2241 36.7214 18.1454 34.8215C20.0669 32.9214 21.0311 30.5956 21.0311 27.8679C21.0311 25.1635 20.1968 22.9989 18.4914 21.4271C16.9023 19.7412 14.7155 18.9176 11.9844 18.9176C11.49 18.9176 10.9966 18.9788 10.5049 19.1003L10.4901 19.104L10.4757 19.1087L9.45247 19.446C9.10846 19.5315 8.81358 19.6203 8.57523 19.7144C8.50953 19.6418 8.44362 19.5308 8.38642 19.3611L8.37725 19.3338L8.36431 19.3083C8.17357 18.9311 8.06153 18.375 8.06153 17.6079C8.06153 15.5087 8.56315 13.7698 9.54382 12.3679C10.6803 10.7948 11.8699 9.45122 13.1114 8.3344C14.5794 7.10696 16.2766 6.04359 18.2057 5.14589L18.6184 4.95386L18.3753 4.5691L16.646 1.83311L16.4749 1.5625L16.1733 1.66987C13.2387 2.71455 10.7091 4.28411 8.59026 6.37933C6.70308 8.24547 5.0074 10.7961 3.4957 14.0152C1.96231 17.1658 1.2085 21.2209 1.2085 26.1579C1.2085 29.652 2.1525 32.4915 4.07792 34.6335Z" stroke="#012F33" stroke-width="0.800588"/>
</g>
<defs>
<clipPath id="clip0_7_1601">
<rect width="44.8329" height="37.6276" fill="white" transform="translate(0.808228 0.445801)"/>
</clipPath>
</defs>
</svg>
